
          <svg data-logo="logo" xmlns="http://www.w3.org/2000/svg" viewBox="0 0 199 42">
            <g id="logogram" transform="translate(0, 1) rotate(0)"><path d="M29.2205 33.1053L2.45499 14.6424C-0.257366 12.7715 0.664657 8.87601 4.0469 7.95996L32.4939 0.239132C33.0965 0.0216955 33.7422 -0.0488885 34.3776 0.0332432C35.0129 0.115375 35.6195 0.34785 36.147 0.711378C36.6745 1.07491 37.1077 1.559 37.4106 2.12348C37.7134 2.68795 37.8774 3.31654 37.8887 3.95706L36.2028 30.1393C36.0029 33.247 31.9329 34.9762 29.2205 33.1053Z" fill="#E9327C"/><path d="M20.7314 37.6632L4.96295 6.82616C4.60249 6.12071 4.44389 5.3294 4.50459 4.53951C4.5653 3.74963 4.84298 2.99186 5.30699 2.34977C5.77102 1.70768 6.40335 1.20621 7.13427 0.900655C7.86519 0.595104 8.66629 0.497352 9.44923 0.618185L38.672 5.12833C39.3448 5.23218 39.9833 5.49424 40.5352 5.89296C41.0869 6.2917 41.5361 6.8157 41.846 7.4219C42.1557 8.02809 42.3173 8.69915 42.3172 9.37993C42.317 10.0607 42.1553 10.7317 41.8454 11.3378L28.3836 37.6647C28.0221 38.3681 27.4736 38.9583 26.7985 39.3702C26.1234 39.7823 25.3479 40.0001 24.557 40C23.7661 39.9999 22.9906 39.7817 22.3157 39.3695C21.6407 38.9571 21.0926 38.3668 20.7314 37.6632Z" fill="#1DACE3"/><path d="M37.8172 4.9955L23.2498 2.74714L5.36432 7.60342L12.5033 21.5695L29.2206 33.1053C29.5894 33.357 29.995 33.5497 30.4231 33.6767L36.7728 21.2592L37.8172 4.9955Z" fill="#001A49"/></g>
            <g id="logotype" transform="translate(49, 8)"><path fill="#eb0a0a" d="M19.06 26L8.31 26L8.31 0.54L18.41 0.54Q21.21 0.54 23.08 1.38Q24.95 2.23 25.88 3.70Q26.82 5.17 26.82 7.08L26.82 7.08Q26.82 8.59 26.22 9.70Q25.62 10.82 24.59 11.53Q23.55 12.24 22.24 12.55L22.24 12.55L22.24 12.81Q23.67 12.86 24.94 13.62Q26.22 14.38 27.01 15.74Q27.81 17.10 27.81 18.99L27.81 18.99Q27.81 20.99 26.82 22.58Q25.82 24.17 23.88 25.09Q21.94 26 19.06 26L19.06 26ZM13.52 14.81L13.52 21.71L18.03 21.71Q20.32 21.71 21.38 20.82Q22.44 19.93 22.44 18.50L22.44 18.50Q22.44 17.40 21.92 16.57Q21.40 15.75 20.44 15.28Q19.48 14.81 18.17 14.81L18.17 14.81L13.52 14.81ZM13.52 4.79L13.52 11.23L17.64 11.23Q18.75 11.23 19.64 10.83Q20.53 10.43 21.03 9.69Q21.53 8.94 21.53 7.92L21.53 7.92Q21.53 6.53 20.55 5.66Q19.57 4.79 17.74 4.79L17.74 4.79L13.52 4.79ZM34.20 14.94L34.20 14.94L34.20 26L29.07 26L29.07 0.54L34.09 0.54L34.09 11.66L33.68 11.66Q34.44 9.27 35.96 7.96Q37.49 6.65 39.92 6.65L39.92 6.65Q41.90 6.65 43.38 7.52Q44.86 8.38 45.67 10.00Q46.48 11.61 46.48 13.85L46.48 13.85L46.48 26L41.36 26L41.36 14.74Q41.36 12.96 40.44 11.95Q39.53 10.94 37.90 10.94L37.90 10.94Q36.83 10.94 35.98 11.41Q35.14 11.88 34.67 12.77Q34.20 13.66 34.20 14.94ZM53.92 26.38L53.92 26.38Q52.10 26.38 50.66 25.74Q49.22 25.09 48.39 23.82Q47.56 22.55 47.56 20.65L47.56 20.65Q47.56 19.06 48.15 17.98Q48.74 16.91 49.75 16.26Q50.77 15.61 52.06 15.27Q53.35 14.93 54.77 14.79L54.77 14.79Q56.43 14.62 57.44 14.47Q58.46 14.33 58.93 14.01Q59.40 13.70 59.40 13.08L59.40 13.08L59.40 12.99Q59.40 12.17 59.06 11.61Q58.72 11.05 58.05 10.75Q57.39 10.45 56.41 10.45L56.41 10.45Q55.42 10.45 54.68 10.75Q53.95 11.05 53.49 11.54Q53.03 12.04 52.80 12.65L52.80 12.65L48.11 11.87Q48.60 10.21 49.75 9.05Q50.89 7.88 52.59 7.27Q54.29 6.65 56.41 6.65L56.41 6.65Q57.97 6.65 59.42 7.02Q60.87 7.39 62.02 8.16Q63.18 8.93 63.85 10.16Q64.53 11.39 64.53 13.13L64.53 13.13L64.53 26L59.68 26L59.68 23.35L59.50 23.35Q59.04 24.24 58.27 24.91Q57.50 25.59 56.42 25.98Q55.33 26.38 53.92 26.38ZM55.37 22.77L55.37 22.77Q56.58 22.77 57.50 22.29Q58.41 21.81 58.92 20.99Q59.44 20.17 59.44 19.16L59.44 19.16L59.44 17.10Q59.21 17.27 58.75 17.40Q58.29 17.54 57.73 17.64Q57.16 17.75 56.62 17.83Q56.07 17.92 55.64 17.97L55.64 17.97Q54.70 18.10 53.98 18.41Q53.27 18.72 52.87 19.22Q52.48 19.73 52.48 20.51L52.48 20.51Q52.48 21.25 52.86 21.75Q53.23 22.26 53.87 22.51Q54.51 22.77 55.37 22.77ZM71.76 26L66.63 26L66.63 6.89L71.58 6.89L71.58 10.23L71.79 10.23Q72.32 8.45 73.56 7.54Q74.80 6.64 76.40 6.64L76.40 6.64Q76.80 6.64 77.25 6.68Q77.70 6.72 78.06 6.81L78.06 6.81L78.06 11.39Q77.72 11.27 77.07 11.20Q76.42 11.13 75.84 11.13L75.84 11.13Q74.68 11.13 73.74 11.64Q72.80 12.14 72.28 13.04Q71.76 13.93 71.76 15.13L71.76 15.13L71.76 26ZM83.94 26.38L83.94 26.38Q82.13 26.38 80.68 25.74Q79.24 25.09 78.41 23.82Q77.58 22.55 77.58 20.65L77.58 20.65Q77.58 19.06 78.17 17.98Q78.76 16.91 79.78 16.26Q80.79 15.61 82.08 15.27Q83.37 14.93 84.79 14.79L84.79 14.79Q86.45 14.62 87.47 14.47Q88.48 14.33 88.95 14.01Q89.42 13.70 89.42 13.08L89.42 13.08L89.42 12.99Q89.42 12.17 89.08 11.61Q88.74 11.05 88.07 10.75Q87.41 10.45 86.43 10.45L86.43 10.45Q85.44 10.45 84.71 10.75Q83.97 11.05 83.51 11.54Q83.05 12.04 82.83 12.65L82.83 12.65L78.13 11.87Q78.62 10.21 79.77 9.05Q80.91 7.88 82.61 7.27Q84.31 6.65 86.43 6.65L86.43 6.65Q87.99 6.65 89.44 7.02Q90.89 7.39 92.05 8.16Q93.20 8.93 93.88 10.16Q94.55 11.39 94.55 13.13L94.55 13.13L94.55 26L89.70 26L89.70 23.35L89.53 23.35Q89.07 24.24 88.30 24.91Q87.53 25.59 86.44 25.98Q85.36 26.38 83.94 26.38ZM85.39 22.77L85.39 22.77Q86.60 22.77 87.52 22.29Q88.43 21.81 88.95 20.99Q89.46 20.17 89.46 19.16L89.46 19.16L89.46 17.10Q89.24 17.27 88.77 17.40Q88.31 17.54 87.75 17.64Q87.19 17.75 86.64 17.83Q86.09 17.92 85.66 17.97L85.66 17.97Q84.72 18.10 84.01 18.41Q83.29 18.72 82.90 19.22Q82.50 19.73 82.50 20.51L82.50 20.51Q82.50 21.25 82.88 21.75Q83.25 22.26 83.90 22.51Q84.54 22.77 85.39 22.77ZM94.81 6.89L106.14 6.89L106.14 10.81L94.81 10.81L94.81 6.89ZM97.44 20.86L97.44 2.35L102.56 2.35L102.56 20.41Q102.56 21.32 102.97 21.75Q103.37 22.19 104.31 22.19L104.31 22.19Q104.60 22.19 105.13 22.11Q105.66 22.04 105.93 21.97L105.93 21.97L106.67 25.81Q105.81 26.07 104.97 26.17Q104.12 26.27 103.35 26.27L103.35 26.27Q100.48 26.27 98.96 24.87Q97.44 23.47 97.44 20.86L97.44 20.86ZM118.59 26.34L118.59 26.34Q115.02 26.34 112.33 24.76Q109.64 23.18 108.13 20.25Q106.61 17.32 106.61 13.30L106.61 13.30Q106.61 9.17 108.18 6.24Q109.76 3.30 112.44 1.75Q115.12 0.19 118.47 0.19L118.47 0.19Q120.63 0.19 122.48 0.82Q124.33 1.44 125.78 2.59Q127.22 3.73 128.14 5.30Q129.05 6.86 129.33 8.74L129.33 8.74L124.03 8.74Q123.75 7.83 123.27 7.11Q122.78 6.38 122.09 5.87Q121.40 5.36 120.51 5.09Q119.62 4.83 118.56 4.83L118.56 4.83Q116.59 4.83 115.09 5.81Q113.59 6.79 112.75 8.67Q111.91 10.55 111.91 13.25L111.91 13.25Q111.91 15.95 112.74 17.84Q113.57 19.73 115.07 20.72Q116.58 21.71 118.63 21.71L118.63 21.71Q120.47 21.71 121.79 21.04Q123.10 20.38 123.81 19.15Q124.52 17.92 124.52 16.24L124.52 16.24L125.62 16.40L118.99 16.40L118.99 12.43L129.58 12.43L129.58 15.61Q129.58 18.96 128.16 21.36Q126.74 23.76 124.27 25.05Q121.79 26.34 118.59 26.34ZM139.73 26.38L139.73 26.38Q136.86 26.38 134.76 25.14Q132.66 23.90 131.52 21.68Q130.38 19.47 130.38 16.53L130.38 16.53Q130.38 13.56 131.52 11.35Q132.66 9.13 134.76 7.89Q136.86 6.65 139.73 6.65L139.73 6.65Q142.62 6.65 144.71 7.89Q146.81 9.13 147.94 11.35Q149.08 13.56 149.08 16.53L149.08 16.53Q149.08 19.47 147.94 21.68Q146.81 23.90 144.71 25.14Q142.62 26.38 139.73 26.38ZM139.73 22.34L139.73 22.34Q141.10 22.34 142.02 21.58Q142.94 20.82 143.41 19.50Q143.87 18.17 143.87 16.52L143.87 16.52Q143.87 14.82 143.41 13.51Q142.94 12.19 142.02 11.44Q141.10 10.69 139.73 10.69L139.73 10.69Q138.36 10.69 137.45 11.44Q136.53 12.19 136.07 13.51Q135.61 14.82 135.61 16.52L135.61 16.52Q135.61 18.17 136.07 19.50Q136.53 20.82 137.45 21.58Q138.36 22.34 139.73 22.34Z"/></g>
            
          </svg>
        